<svg width="14.400002" height="12.799988" viewBox="0 0 14.4 12.8" fill="none" xmlns="http://www.w3.org/2000/svg" xmlns:xlink="http://www.w3.org/1999/xlink">
	<desc>
			Created with Pixso.
	</desc>
	<defs/>
	<path d="M14.0516 2.62311C13.8282 2.1098 13.506 1.64462 13.1032 1.25366C12.7 0.861542 12.2247 0.549927 11.703 0.335754C11.1621 0.112793 10.5819 -0.00131226 9.99615 0C9.17439 0 8.37263 0.223297 7.67588 0.64502C7.50919 0.745911 7.35084 0.85672 7.20082 0.977478C7.05081 0.85672 6.89246 0.745911 6.72577 0.64502C6.02902 0.223297 5.22726 0 4.4055 0C3.81377 0 3.24037 0.112488 2.69864 0.335754C2.17525 0.550751 1.70353 0.860046 1.29848 1.25366C0.895098 1.6442 0.572863 2.10947 0.35004 2.62311C0.118347 3.15732 0 3.72461 0 4.30844C0 4.85919 0.113346 5.43311 0.338371 6.01691C0.526728 6.50482 0.796759 7.01093 1.1418 7.52197C1.68853 8.33072 2.44028 9.17422 3.37372 10.0293C4.92056 11.4467 6.45241 12.4258 6.51741 12.4655L6.91246 12.7169C7.08748 12.8277 7.3125 12.8277 7.48752 12.7169L7.88257 12.4655C7.94758 12.4242 9.47775 11.4467 11.0263 10.0293C11.9597 9.17422 12.7115 8.33072 13.2582 7.52197C13.6032 7.01093 13.8749 6.50482 14.0616 6.01691C14.2866 5.43311 14.4 4.85919 14.4 4.30844C14.4016 3.72461 14.2833 3.15732 14.0516 2.62311Z" fill="#FF8585" fill-opacity="1.000000" fill-rule="nonzero"/>
</svg>
