<svg width="16.000000" height="16.000000" viewBox="0 0 16 16" fill="none" xmlns="http://www.w3.org/2000/svg" xmlns:xlink="http://www.w3.org/1999/xlink">
	<desc>
			Created with Pixso.
	</desc>
	<defs>
		<clipPath id="clip177855_5">
			<rect id="8666647_heart_icon 1" width="16.000000" height="16.000000" fill="white" fill-opacity="0"/>
		</clipPath>
	</defs>
	<rect id="Vector" width="14.400000" height="12.799999" transform="translate(0.533325 1.599976)" fill="#FFFFFF" fill-opacity="0"/>
	<rect id="8666647_heart_icon 1" width="16.000000" height="16.000000" fill="#FFFFFF" fill-opacity="0"/>
	<g clip-path="url(#clip177855_5)">
		<path id="Vector" d="M12.6711 2.27927C12.2261 2.09491 11.7492 2 11.2675 2C10.7859 2 10.3089 2.09491 9.86395 2.27927C9.41898 2.46365 9.01471 2.73389 8.67419 3.07455L7.96753 3.78122L7.26086 3.07455C6.57306 2.38675 5.64023 2.00037 4.66754 2.00037C3.69482 2.00037 2.76199 2.38675 2.07419 3.07455C1.38641 3.76236 1 4.69519 1 5.66788C1 6.64056 1.38641 7.57343 2.07419 8.26123L2.78085 8.9679L7.96753 14.1545L13.1542 8.9679L13.8609 8.26123C14.2015 7.92072 14.4718 7.51642 14.6561 7.07144C14.8405 6.6265 14.9354 6.14954 14.9354 5.66788C14.9354 5.18622 14.8405 4.70929 14.6561 4.26431C14.4718 3.81934 14.2015 3.41507 13.8609 3.07455C13.5204 2.73389 13.1161 2.46365 12.6711 2.27927Z" stroke="#EAEAEA" stroke-opacity="1.000000" stroke-width="1.200000" stroke-linejoin="round"/>
	</g>
</svg>
